<svg width="154" height="158" viewBox="0 0 154 158" fill="none" xmlns="http://www.w3.org/2000/svg">
<path d="M0.500015 46.5C0.500015 46.5 27.6927 10.8144 52 11.5C75.348 12.1585 100.5 46.5 100.5 46.5C100.5 46.5 60.8276 31.0262 46.5 46.5C33.2338 60.8276 33.2338 82.1724 46.5 96.5C60.8276 111.974 100.5 96.5 100.5 96.5C100.5 96.5 113.766 132.172 100.5 146.5C86.1724 161.974 52 144 52 144C52 144 44.5 101 22.5 119.5C0.500011 138 0.500001 108 0.500015 96.5C0.50004 76.9738 0.500015 46.5 0.500015 46.5Z" fill="#191622"/>
<path fill-rule="evenodd" clip-rule="evenodd" d="M117.936 0L102 44.379C102 44.379 102.632 53.209 104.065 64.7941C81.9999 65.3572 52 87.5 52 87.5C52 87.5 87.2237 79.404 102.5 92C122.414 108.42 106 158 106 158L124.95 118.156C125.861 117.613 126.804 116.798 127.779 115.685C134.14 108.419 138.559 94.243 138.091 92.7471C137.622 91.2512 132.466 73.3001 132.466 73.3001C132.466 73.3001 167.814 24.4128 147.934 20.9429C144.682 20.3754 139.497 20.9429 139.497 20.9429C139.497 20.9429 136.5 59.5 121.5 66.5C116.307 68.9235 116.696 61.7351 117.117 53.9545C117.338 49.8629 117.568 45.6074 117 42.5C115.603 34.8586 121.109 28.422 126.053 22.6429C131.571 16.1921 136.389 10.5604 130.123 4.9864C126.211 1.50668 117.936 0 117.936 0Z" fill="#9854AA"/>
</svg>
