<svg width="76" height="54" viewBox="0 0 76 54" fill="none" xmlns="http://www.w3.org/2000/svg">
<mask id="path-1-outside-1_14_2" maskUnits="userSpaceOnUse" x="-1" y="-1" width="78" height="56" fill="black">
<rect fill="white" x="-1" y="-1" width="78" height="56"/>
<path d="M10.7143 0.428573H16.0714V5.78571H10.7143V0.428573ZM5.35714 0.428573H10.7143V5.78571H5.35714V0.428573ZM5.35714 5.78571H10.7143V11.1429H5.35714V5.78571ZM10.7143 5.78571H16.0714V11.1429H10.7143V5.78571ZM16.0714 5.78571H21.4286V11.1429H16.0714V5.78571ZM16.0714 0.428573H21.4286V5.78571H16.0714V0.428573ZM21.4286 0.428573H26.7857V5.78571H21.4286V0.428573ZM26.7857 0.428573H32.1429V5.78571H26.7857V0.428573ZM26.7857 5.78571H32.1429V11.1429H26.7857V5.78571ZM21.4286 5.78571H26.7857V11.1429H21.4286V5.78571ZM26.7857 11.1429H32.1429V16.5H26.7857V11.1429ZM32.1429 5.78571H37.5V11.1429H32.1429V5.78571ZM32.1429 11.1429H37.5V16.5H32.1429V11.1429ZM32.1429 37.9286H37.5V43.2857H32.1429V37.9286ZM32.1429 43.2857H37.5V48.6429H32.1429V43.2857ZM26.7857 43.2857H32.1429V48.6429H26.7857V43.2857ZM26.7857 37.9286H32.1429V43.2857H26.7857V37.9286ZM21.4286 43.2857H26.7857V48.6429H21.4286V43.2857ZM26.7857 48.6429H32.1429V54H26.7857V48.6429ZM21.4286 48.6429H26.7857V54H21.4286V48.6429ZM16.0714 48.6429H21.4286V54H16.0714V48.6429ZM16.0714 43.2857H21.4286V48.6429H16.0714V43.2857ZM10.7143 48.6429H16.0714V54H10.7143V48.6429ZM5.35714 48.6429H10.7143V54H5.35714V48.6429ZM5.35714 43.2857H10.7143V48.6429H5.35714V43.2857ZM10.7143 43.2857H16.0714V48.6429H10.7143V43.2857ZM10.7143 37.9286H16.0714V43.2857H10.7143V37.9286ZM5.35714 37.9286H10.7143V43.2857H5.35714V37.9286ZM0 43.2857H5.35714V48.6429H0V43.2857ZM0 37.9286H5.35714V43.2857H0V37.9286ZM0 32.5714H5.35714V37.9286H0V32.5714ZM0 27.2143H5.35714V32.5714H0V27.2143ZM0 21.8571H5.35714V27.2143H0V21.8571ZM0 16.5H5.35714V21.8571H0V16.5ZM0 11.1429H5.35714V16.5H0V11.1429ZM5.35714 11.1429H10.7143V16.5H5.35714V11.1429ZM0 5.78571H5.35714V11.1429H0V5.78571ZM10.7143 11.1429H16.0714V16.5H10.7143V11.1429ZM5.35714 16.5H10.7143V21.8571H5.35714V16.5ZM5.35714 21.8571H10.7143V27.2143H5.35714V21.8571ZM5.35714 27.2143H10.7143V32.5714H5.35714V27.2143ZM5.35714 32.5714H10.7143V37.9286H5.35714V32.5714ZM32.1429 32.5714H37.5V37.9286H32.1429V32.5714ZM26.7857 32.5714H32.1429V37.9286H26.7857V32.5714ZM26.7857 27.2143H32.1429V32.5714H26.7857V27.2143ZM32.1429 27.2143H37.5V32.5714H32.1429V27.2143ZM32.1429 21.8571H37.5V27.2143H32.1429V21.8571ZM26.7857 21.8571H32.1429V27.2143H26.7857V21.8571ZM21.4286 21.8571H26.7857V27.2143H21.4286V21.8571ZM16.0714 21.8571H21.4286V27.2143H16.0714V21.8571ZM16.0714 27.2143H21.4286V32.5714H16.0714V27.2143ZM21.4286 27.2143H26.7857V32.5714H21.4286V27.2143Z"/>
<path d="M42.8711 0.428573H48.2282V5.78571H42.8711V0.428573ZM48.2282 0.428573H53.5854V5.78571H48.2282V0.428573ZM48.2282 5.78571H53.5854V11.1429H48.2282V5.78571ZM48.2282 11.1429H53.5854V16.5H48.2282V11.1429ZM48.2282 16.5H53.5854V21.8571H48.2282V16.5ZM42.8711 16.5H48.2282V21.8571H42.8711V16.5ZM42.8711 11.1429H48.2282V16.5H42.8711V11.1429ZM42.8711 5.78571H48.2282V11.1429H42.8711V5.78571ZM42.8711 21.8571H48.2282V27.2143H42.8711V21.8571ZM42.8711 27.2143H48.2282V32.5714H42.8711V27.2143ZM42.8711 32.5714H48.2282V37.9286H42.8711V32.5714ZM48.2282 27.2143H53.5854V32.5714H48.2282V27.2143ZM48.2282 21.8571H53.5854V27.2143H48.2282V21.8571ZM48.2282 32.5714H53.5854V37.9286H48.2282V32.5714ZM48.2282 37.9286H53.5854V43.2857H48.2282V37.9286ZM42.8711 43.2857H48.2282V48.6429H42.8711V43.2857ZM42.8711 37.9286H48.2282V43.2857H42.8711V37.9286ZM42.8711 48.6429H48.2282V54H42.8711V48.6429ZM48.2282 48.6429H53.5854V54H48.2282V48.6429ZM48.2282 43.2857H53.5854V48.6429H48.2282V43.2857ZM53.5854 0.428573H58.9425V5.78571H53.5854V0.428573ZM58.9425 0.428573H64.2997V5.78571H58.9425V0.428573ZM64.2997 0.428573H69.6568V5.78571H64.2997V0.428573ZM69.6568 0.428573H75.014V5.78571H69.6568V0.428573ZM64.2997 5.78571H69.6568V11.1429H64.2997V5.78571ZM58.9425 5.78571H64.2997V11.1429H58.9425V5.78571ZM53.5854 5.78571H58.9425V11.1429H53.5854V5.78571ZM53.5854 27.2143H58.9425V32.5714H53.5854V27.2143ZM58.9425 21.8571H64.2997V27.2143H58.9425V21.8571ZM53.5854 21.8571H58.9425V27.2143H53.5854V21.8571ZM58.9425 27.2143H64.2997V32.5714H58.9425V27.2143ZM69.6568 5.78571H75.014V11.1429H69.6568V5.78571ZM64.2997 21.8571H69.6568V27.2143H64.2997V21.8571ZM64.2997 27.2143H69.6568V32.5714H64.2997V27.2143Z"/>
</mask>
<path d="M10.7143 0.428573H16.0714V5.78571H10.7143V0.428573ZM5.35714 0.428573H10.7143V5.78571H5.35714V0.428573ZM5.35714 5.78571H10.7143V11.1429H5.35714V5.78571ZM10.7143 5.78571H16.0714V11.1429H10.7143V5.78571ZM16.0714 5.78571H21.4286V11.1429H16.0714V5.78571ZM16.0714 0.428573H21.4286V5.78571H16.0714V0.428573ZM21.4286 0.428573H26.7857V5.78571H21.4286V0.428573ZM26.7857 0.428573H32.1429V5.78571H26.7857V0.428573ZM26.7857 5.78571H32.1429V11.1429H26.7857V5.78571ZM21.4286 5.78571H26.7857V11.1429H21.4286V5.78571ZM26.7857 11.1429H32.1429V16.5H26.7857V11.1429ZM32.1429 5.78571H37.5V11.1429H32.1429V5.78571ZM32.1429 11.1429H37.5V16.5H32.1429V11.1429ZM32.1429 37.9286H37.5V43.2857H32.1429V37.9286ZM32.1429 43.2857H37.5V48.6429H32.1429V43.2857ZM26.7857 43.2857H32.1429V48.6429H26.7857V43.2857ZM26.7857 37.9286H32.1429V43.2857H26.7857V37.9286ZM21.4286 43.2857H26.7857V48.6429H21.4286V43.2857ZM26.7857 48.6429H32.1429V54H26.7857V48.6429ZM21.4286 48.6429H26.7857V54H21.4286V48.6429ZM16.0714 48.6429H21.4286V54H16.0714V48.6429ZM16.0714 43.2857H21.4286V48.6429H16.0714V43.2857ZM10.7143 48.6429H16.0714V54H10.7143V48.6429ZM5.35714 48.6429H10.7143V54H5.35714V48.6429ZM5.35714 43.2857H10.7143V48.6429H5.35714V43.2857ZM10.7143 43.2857H16.0714V48.6429H10.7143V43.2857ZM10.7143 37.9286H16.0714V43.2857H10.7143V37.9286ZM5.35714 37.9286H10.7143V43.2857H5.35714V37.9286ZM0 43.2857H5.35714V48.6429H0V43.2857ZM0 37.9286H5.35714V43.2857H0V37.9286ZM0 32.5714H5.35714V37.9286H0V32.5714ZM0 27.2143H5.35714V32.5714H0V27.2143ZM0 21.8571H5.35714V27.2143H0V21.8571ZM0 16.5H5.35714V21.8571H0V16.5ZM0 11.1429H5.35714V16.5H0V11.1429ZM5.35714 11.1429H10.7143V16.5H5.35714V11.1429ZM0 5.78571H5.35714V11.1429H0V5.78571ZM10.7143 11.1429H16.0714V16.5H10.7143V11.1429ZM5.35714 16.5H10.7143V21.8571H5.35714V16.5ZM5.35714 21.8571H10.7143V27.2143H5.35714V21.8571ZM5.35714 27.2143H10.7143V32.5714H5.35714V27.2143ZM5.35714 32.5714H10.7143V37.9286H5.35714V32.5714ZM32.1429 32.5714H37.5V37.9286H32.1429V32.5714ZM26.7857 32.5714H32.1429V37.9286H26.7857V32.5714ZM26.7857 27.2143H32.1429V32.5714H26.7857V27.2143ZM32.1429 27.2143H37.5V32.5714H32.1429V27.2143ZM32.1429 21.8571H37.5V27.2143H32.1429V21.8571ZM26.7857 21.8571H32.1429V27.2143H26.7857V21.8571ZM21.4286 21.8571H26.7857V27.2143H21.4286V21.8571ZM16.0714 21.8571H21.4286V27.2143H16.0714V21.8571ZM16.0714 27.2143H21.4286V32.5714H16.0714V27.2143ZM21.4286 27.2143H26.7857V32.5714H21.4286V27.2143Z" fill="#9854AA"/>
<path d="M42.8711 0.428573H48.2282V5.78571H42.8711V0.428573ZM48.2282 0.428573H53.5854V5.78571H48.2282V0.428573ZM48.2282 5.78571H53.5854V11.1429H48.2282V5.78571ZM48.2282 11.1429H53.5854V16.5H48.2282V11.1429ZM48.2282 16.5H53.5854V21.8571H48.2282V16.5ZM42.8711 16.5H48.2282V21.8571H42.8711V16.5ZM42.8711 11.1429H48.2282V16.5H42.8711V11.1429ZM42.8711 5.78571H48.2282V11.1429H42.8711V5.78571ZM42.8711 21.8571H48.2282V27.2143H42.8711V21.8571ZM42.8711 27.2143H48.2282V32.5714H42.8711V27.2143ZM42.8711 32.5714H48.2282V37.9286H42.8711V32.5714ZM48.2282 27.2143H53.5854V32.5714H48.2282V27.2143ZM48.2282 21.8571H53.5854V27.2143H48.2282V21.8571ZM48.2282 32.5714H53.5854V37.9286H48.2282V32.5714ZM48.2282 37.9286H53.5854V43.2857H48.2282V37.9286ZM42.8711 43.2857H48.2282V48.6429H42.8711V43.2857ZM42.8711 37.9286H48.2282V43.2857H42.8711V37.9286ZM42.8711 48.6429H48.2282V54H42.8711V48.6429ZM48.2282 48.6429H53.5854V54H48.2282V48.6429ZM48.2282 43.2857H53.5854V48.6429H48.2282V43.2857ZM53.5854 0.428573H58.9425V5.78571H53.5854V0.428573ZM58.9425 0.428573H64.2997V5.78571H58.9425V0.428573ZM64.2997 0.428573H69.6568V5.78571H64.2997V0.428573ZM69.6568 0.428573H75.014V5.78571H69.6568V0.428573ZM64.2997 5.78571H69.6568V11.1429H64.2997V5.78571ZM58.9425 5.78571H64.2997V11.1429H58.9425V5.78571ZM53.5854 5.78571H58.9425V11.1429H53.5854V5.78571ZM53.5854 27.2143H58.9425V32.5714H53.5854V27.2143ZM58.9425 21.8571H64.2997V27.2143H58.9425V21.8571ZM53.5854 21.8571H58.9425V27.2143H53.5854V21.8571ZM58.9425 27.2143H64.2997V32.5714H58.9425V27.2143ZM69.6568 5.78571H75.014V11.1429H69.6568V5.78571ZM64.2997 21.8571H69.6568V27.2143H64.2997V21.8571ZM64.2997 27.2143H69.6568V32.5714H64.2997V27.2143Z" fill="#191622"/>
<path d="M10.7143 0.428573V-0.571427H9.71429V0.428573H10.7143ZM16.0714 0.428573H17.0714V-0.571427H16.0714V0.428573ZM16.0714 5.78571V6.78571H17.0714V5.78571H16.0714ZM10.7143 5.78571H9.71429V6.78571H10.7143V5.78571ZM5.35714 0.428573V-0.571427H4.35714V0.428573H5.35714ZM10.7143 0.428573H11.7143V-0.571427H10.7143V0.428573ZM10.7143 5.78571V6.78571H11.7143V5.78571H10.7143ZM5.35714 5.78571H4.35714V6.78571H5.35714V5.78571ZM5.35714 5.78571V4.78571H4.35714V5.78571H5.35714ZM10.7143 5.78571H11.7143V4.78571H10.7143V5.78571ZM10.7143 11.1429V12.1429H11.7143V11.1429H10.7143ZM5.35714 11.1429H4.35714V12.1429H5.35714V11.1429ZM10.7143 5.78571V4.78571H9.71429V5.78571H10.7143ZM16.0714 5.78571H17.0714V4.78571H16.0714V5.78571ZM16.0714 11.1429V12.1429H17.0714V11.1429H16.0714ZM10.7143 11.1429H9.71429V12.1429H10.7143V11.1429ZM16.0714 5.78571V4.78571H15.0714V5.78571H16.0714ZM21.4286 5.78571H22.4286V4.78571H21.4286V5.78571ZM21.4286 11.1429V12.1429H22.4286V11.1429H21.4286ZM16.0714 11.1429H15.0714V12.1429H16.0714V11.1429ZM16.0714 0.428573V-0.571427H15.0714V0.428573H16.0714ZM21.4286 0.428573H22.4286V-0.571427H21.4286V0.428573ZM21.4286 5.78571V6.78571H22.4286V5.78571H21.4286ZM16.0714 5.78571H15.0714V6.78571H16.0714V5.78571ZM21.4286 0.428573V-0.571427H20.4286V0.428573H21.4286ZM26.7857 0.428573H27.7857V-0.571427H26.7857V0.428573ZM26.7857 5.78571V6.78571H27.7857V5.78571H26.7857ZM21.4286 5.78571H20.4286V6.78571H21.4286V5.78571ZM26.7857 0.428573V-0.571427H25.7857V0.428573H26.7857ZM32.1429 0.428573H33.1429V-0.571427H32.1429V0.428573ZM32.1429 5.78571V6.78571H33.1429V5.78571H32.1429ZM26.7857 5.78571H25.7857V6.78571H26.7857V5.78571ZM26.7857 5.78571V4.78571H25.7857V5.78571H26.7857ZM32.1429 5.78571H33.1429V4.78571H32.1429V5.78571ZM32.1429 11.1429V12.1429H33.1429V11.1429H32.1429ZM26.7857 11.1429H25.7857V12.1429H26.7857V11.1429ZM21.4286 5.78571V4.78571H20.4286V5.78571H21.4286ZM26.7857 5.78571H27.7857V4.78571H26.7857V5.78571ZM26.7857 11.1429V12.1429H27.7857V11.1429H26.7857ZM21.4286 11.1429H20.4286V12.1429H21.4286V11.1429ZM26.7857 11.1429V10.1429H25.7857V11.1429H26.7857ZM32.1429 11.1429H33.1429V10.1429H32.1429V11.1429ZM32.1429 16.5V17.5H33.1429V16.5H32.1429ZM26.7857 16.5H25.7857V17.5H26.7857V16.5ZM32.1429 5.78571V4.78571H31.1429V5.78571H32.1429ZM37.5 5.78571H38.5V4.78571H37.5V5.78571ZM37.5 11.1429V12.1429H38.5V11.1429H37.5ZM32.1429 11.1429H31.1429V12.1429H32.1429V11.1429ZM32.1429 11.1429V10.1429H31.1429V11.1429H32.1429ZM37.5 11.1429H38.5V10.1429H37.5V11.1429ZM37.5 16.5V17.5H38.5V16.5H37.5ZM32.1429 16.5H31.1429V17.5H32.1429V16.5ZM32.1429 37.9286V36.9286H31.1429V37.9286H32.1429ZM37.5 37.9286H38.5V36.9286H37.5V37.9286ZM37.5 43.2857V44.2857H38.5V43.2857H37.5ZM32.1429 43.2857H31.1429V44.2857H32.1429V43.2857ZM32.1429 43.2857V42.2857H31.1429V43.2857H32.1429ZM37.5 43.2857H38.5V42.2857H37.5V43.2857ZM37.5 48.6429V49.6429H38.5V48.6429H37.5ZM32.1429 48.6429H31.1429V49.6429H32.1429V48.6429ZM26.7857 43.2857V42.2857H25.7857V43.2857H26.7857ZM32.1429 43.2857H33.1429V42.2857H32.1429V43.2857ZM32.1429 48.6429V49.6429H33.1429V48.6429H32.1429ZM26.7857 48.6429H25.7857V49.6429H26.7857V48.6429ZM26.7857 37.9286V36.9286H25.7857V37.9286H26.7857ZM32.1429 37.9286H33.1429V36.9286H32.1429V37.9286ZM32.1429 43.2857V44.2857H33.1429V43.2857H32.1429ZM26.7857 43.2857H25.7857V44.2857H26.7857V43.2857ZM21.4286 43.2857V42.2857H20.4286V43.2857H21.4286ZM26.7857 43.2857H27.7857V42.2857H26.7857V43.2857ZM26.7857 48.6429V49.6429H27.7857V48.6429H26.7857ZM21.4286 48.6429H20.4286V49.6429H21.4286V48.6429ZM26.7857 48.6429V47.6429H25.7857V48.6429H26.7857ZM32.1429 48.6429H33.1429V47.6429H32.1429V48.6429ZM32.1429 54V55H33.1429V54H32.1429ZM26.7857 54H25.7857V55H26.7857V54ZM21.4286 48.6429V47.6429H20.4286V48.6429H21.4286ZM26.7857 48.6429H27.7857V47.6429H26.7857V48.6429ZM26.7857 54V55H27.7857V54H26.7857ZM21.4286 54H20.4286V55H21.4286V54ZM16.0714 48.6429V47.6429H15.0714V48.6429H16.0714ZM21.4286 48.6429H22.4286V47.6429H21.4286V48.6429ZM21.4286 54V55H22.4286V54H21.4286ZM16.0714 54H15.0714V55H16.0714V54ZM16.0714 43.2857V42.2857H15.0714V43.2857H16.0714ZM21.4286 43.2857H22.4286V42.2857H21.4286V43.2857ZM21.4286 48.6429V49.6429H22.4286V48.6429H21.4286ZM16.0714 48.6429H15.0714V49.6429H16.0714V48.6429ZM10.7143 48.6429V47.6429H9.71429V48.6429H10.7143ZM16.0714 48.6429H17.0714V47.6429H16.0714V48.6429ZM16.0714 54V55H17.0714V54H16.0714ZM10.7143 54H9.71429V55H10.7143V54ZM5.35714 48.6429V47.6429H4.35714V48.6429H5.35714ZM10.7143 48.6429H11.7143V47.6429H10.7143V48.6429ZM10.7143 54V55H11.7143V54H10.7143ZM5.35714 54H4.35714V55H5.35714V54ZM5.35714 43.2857V42.2857H4.35714V43.2857H5.35714ZM10.7143 43.2857H11.7143V42.2857H10.7143V43.2857ZM10.7143 48.6429V49.6429H11.7143V48.6429H10.7143ZM5.35714 48.6429H4.35714V49.6429H5.35714V48.6429ZM10.7143 43.2857V42.2857H9.71429V43.2857H10.7143ZM16.0714 43.2857H17.0714V42.2857H16.0714V43.2857ZM16.0714 48.6429V49.6429H17.0714V48.6429H16.0714ZM10.7143 48.6429H9.71429V49.6429H10.7143V48.6429ZM10.7143 37.9286V36.9286H9.71429V37.9286H10.7143ZM16.0714 37.9286H17.0714V36.9286H16.0714V37.9286ZM16.0714 43.2857V44.2857H17.0714V43.2857H16.0714ZM10.7143 43.2857H9.71429V44.2857H10.7143V43.2857ZM5.35714 37.9286V36.9286H4.35714V37.9286H5.35714ZM10.7143 37.9286H11.7143V36.9286H10.7143V37.9286ZM10.7143 43.2857V44.2857H11.7143V43.2857H10.7143ZM5.35714 43.2857H4.35714V44.2857H5.35714V43.2857ZM0 43.2857V42.2857H-1V43.2857H0ZM5.35714 43.2857H6.35714V42.2857H5.35714V43.2857ZM5.35714 48.6429V49.6429H6.35714V48.6429H5.35714ZM0 48.6429H-1V49.6429H0V48.6429ZM0 37.9286V36.9286H-1V37.9286H0ZM5.35714 37.9286H6.35714V36.9286H5.35714V37.9286ZM5.35714 43.2857V44.2857H6.35714V43.2857H5.35714ZM0 43.2857H-1V44.2857H0V43.2857ZM0 32.5714V31.5714H-1V32.5714H0ZM5.35714 32.5714H6.35714V31.5714H5.35714V32.5714ZM5.35714 37.9286V38.9286H6.35714V37.9286H5.35714ZM0 37.9286H-1V38.9286H0V37.9286ZM0 27.2143V26.2143H-1V27.2143H0ZM5.35714 27.2143H6.35714V26.2143H5.35714V27.2143ZM5.35714 32.5714V33.5714H6.35714V32.5714H5.35714ZM0 32.5714H-1V33.5714H0V32.5714ZM0 21.8571V20.8571H-1V21.8571H0ZM5.35714 21.8571H6.35714V20.8571H5.35714V21.8571ZM5.35714 27.2143V28.2143H6.35714V27.2143H5.35714ZM0 27.2143H-1V28.2143H0V27.2143ZM0 16.5V15.5H-1V16.5H0ZM5.35714 16.5H6.35714V15.5H5.35714V16.5ZM5.35714 21.8571V22.8571H6.35714V21.8571H5.35714ZM0 21.8571H-1V22.8571H0V21.8571ZM0 11.1429V10.1429H-1V11.1429H0ZM5.35714 11.1429H6.35714V10.1429H5.35714V11.1429ZM5.35714 16.5V17.5H6.35714V16.5H5.35714ZM0 16.5H-1V17.5H0V16.5ZM5.35714 11.1429V10.1429H4.35714V11.1429H5.35714ZM10.7143 11.1429H11.7143V10.1429H10.7143V11.1429ZM10.7143 16.5V17.5H11.7143V16.5H10.7143ZM5.35714 16.5H4.35714V17.5H5.35714V16.5ZM0 5.78571V4.78571H-1V5.78571H0ZM5.35714 5.78571H6.35714V4.78571H5.35714V5.78571ZM5.35714 11.1429V12.1429H6.35714V11.1429H5.35714ZM0 11.1429H-1V12.1429H0V11.1429ZM10.7143 11.1429V10.1429H9.71429V11.1429H10.7143ZM16.0714 11.1429H17.0714V10.1429H16.0714V11.1429ZM16.0714 16.5V17.5H17.0714V16.5H16.0714ZM10.7143 16.5H9.71429V17.5H10.7143V16.5ZM5.35714 16.5V15.5H4.35714V16.5H5.35714ZM10.7143 16.5H11.7143V15.5H10.7143V16.5ZM10.7143 21.8571V22.8571H11.7143V21.8571H10.7143ZM5.35714 21.8571H4.35714V22.8571H5.35714V21.8571ZM5.35714 21.8571V20.8571H4.35714V21.8571H5.35714ZM10.7143 21.8571H11.7143V20.8571H10.7143V21.8571ZM10.7143 27.2143V28.2143H11.7143V27.2143H10.7143ZM5.35714 27.2143H4.35714V28.2143H5.35714V27.2143ZM5.35714 27.2143V26.2143H4.35714V27.2143H5.35714ZM10.7143 27.2143H11.7143V26.2143H10.7143V27.2143ZM10.7143 32.5714V33.5714H11.7143V32.5714H10.7143ZM5.35714 32.5714H4.35714V33.5714H5.35714V32.5714ZM5.35714 32.5714V31.5714H4.35714V32.5714H5.35714ZM10.7143 32.5714H11.7143V31.5714H10.7143V32.5714ZM10.7143 37.9286V38.9286H11.7143V37.9286H10.7143ZM5.35714 37.9286H4.35714V38.9286H5.35714V37.9286ZM32.1429 32.5714V31.5714H31.1429V32.5714H32.1429ZM37.5 32.5714H38.5V31.5714H37.5V32.5714ZM37.5 37.9286V38.9286H38.5V37.9286H37.5ZM32.1429 37.9286H31.1429V38.9286H32.1429V37.9286ZM26.7857 32.5714V31.5714H25.7857V32.5714H26.7857ZM32.1429 32.5714H33.1429V31.5714H32.1429V32.5714ZM32.1429 37.9286V38.9286H33.1429V37.9286H32.1429ZM26.7857 37.9286H25.7857V38.9286H26.7857V37.9286ZM26.7857 27.2143V26.2143H25.7857V27.2143H26.7857ZM32.1429 27.2143H33.1429V26.2143H32.1429V27.2143ZM32.1429 32.5714V33.5714H33.1429V32.5714H32.1429ZM26.7857 32.5714H25.7857V33.5714H26.7857V32.5714ZM32.1429 27.2143V26.2143H31.1429V27.2143H32.1429ZM37.5 27.2143H38.5V26.2143H37.5V27.2143ZM37.5 32.5714V33.5714H38.5V32.5714H37.5ZM32.1429 32.5714H31.1429V33.5714H32.1429V32.5714ZM32.1429 21.8571V20.8571H31.1429V21.8571H32.1429ZM37.5 21.8571H38.5V20.8571H37.5V21.8571ZM37.5 27.2143V28.2143H38.5V27.2143H37.5ZM32.1429 27.2143H31.1429V28.2143H32.1429V27.2143ZM26.7857 21.8571V20.8571H25.7857V21.8571H26.7857ZM32.1429 21.8571H33.1429V20.8571H32.1429V21.8571ZM32.1429 27.2143V28.2143H33.1429V27.2143H32.1429ZM26.7857 27.2143H25.7857V28.2143H26.7857V27.2143ZM21.4286 21.8571V20.8571H20.4286V21.8571H21.4286ZM26.7857 21.8571H27.7857V20.8571H26.7857V21.8571ZM26.7857 27.2143V28.2143H27.7857V27.2143H26.7857ZM21.4286 27.2143H20.4286V28.2143H21.4286V27.2143ZM16.0714 21.8571V20.8571H15.0714V21.8571H16.0714ZM21.4286 21.8571H22.4286V20.8571H21.4286V21.8571ZM21.4286 27.2143V28.2143H22.4286V27.2143H21.4286ZM16.0714 27.2143H15.0714V28.2143H16.0714V27.2143ZM16.0714 27.2143V26.2143H15.0714V27.2143H16.0714ZM21.4286 27.2143H22.4286V26.2143H21.4286V27.2143ZM21.4286 32.5714V33.5714H22.4286V32.5714H21.4286ZM16.0714 32.5714H15.0714V33.5714H16.0714V32.5714ZM21.4286 27.2143V26.2143H20.4286V27.2143H21.4286ZM26.7857 27.2143H27.7857V26.2143H26.7857V27.2143ZM26.7857 32.5714V33.5714H27.7857V32.5714H26.7857ZM21.4286 32.5714H20.4286V33.5714H21.4286V32.5714ZM10.7143 1.42857H16.0714V-0.571427H10.7143V1.42857ZM15.0714 0.428573V5.78571H17.0714V0.428573H15.0714ZM16.0714 4.78571H10.7143V6.78571H16.0714V4.78571ZM11.7143 5.78571V0.428573H9.71429V5.78571H11.7143ZM5.35714 1.42857H10.7143V-0.571427H5.35714V1.42857ZM9.71429 0.428573V5.78571H11.7143V0.428573H9.71429ZM10.7143 4.78571H5.35714V6.78571H10.7143V4.78571ZM6.35714 5.78571V0.428573H4.35714V5.78571H6.35714ZM5.35714 6.78571H10.7143V4.78571H5.35714V6.78571ZM9.71429 5.78571V11.1429H11.7143V5.78571H9.71429ZM10.7143 10.1429H5.35714V12.1429H10.7143V10.1429ZM6.35714 11.1429V5.78571H4.35714V11.1429H6.35714ZM10.7143 6.78571H16.0714V4.78571H10.7143V6.78571ZM15.0714 5.78571V11.1429H17.0714V5.78571H15.0714ZM16.0714 10.1429H10.7143V12.1429H16.0714V10.1429ZM11.7143 11.1429V5.78571H9.71429V11.1429H11.7143ZM16.0714 6.78571H21.4286V4.78571H16.0714V6.78571ZM20.4286 5.78571V11.1429H22.4286V5.78571H20.4286ZM21.4286 10.1429H16.0714V12.1429H21.4286V10.1429ZM17.0714 11.1429V5.78571H15.0714V11.1429H17.0714ZM16.0714 1.42857H21.4286V-0.571427H16.0714V1.42857ZM20.4286 0.428573V5.78571H22.4286V0.428573H20.4286ZM21.4286 4.78571H16.0714V6.78571H21.4286V4.78571ZM17.0714 5.78571V0.428573H15.0714V5.78571H17.0714ZM21.4286 1.42857H26.7857V-0.571427H21.4286V1.42857ZM25.7857 0.428573V5.78571H27.7857V0.428573H25.7857ZM26.7857 4.78571H21.4286V6.78571H26.7857V4.78571ZM22.4286 5.78571V0.428573H20.4286V5.78571H22.4286ZM26.7857 1.42857H32.1429V-0.571427H26.7857V1.42857ZM31.1429 0.428573V5.78571H33.1429V0.428573H31.1429ZM32.1429 4.78571H26.7857V6.78571H32.1429V4.78571ZM27.7857 5.78571V0.428573H25.7857V5.78571H27.7857ZM26.7857 6.78571H32.1429V4.78571H26.7857V6.78571ZM31.1429 5.78571V11.1429H33.1429V5.78571H31.1429ZM32.1429 10.1429H26.7857V12.1429H32.1429V10.1429ZM27.7857 11.1429V5.78571H25.7857V11.1429H27.7857ZM21.4286 6.78571H26.7857V4.78571H21.4286V6.78571ZM25.7857 5.78571V11.1429H27.7857V5.78571H25.7857ZM26.7857 10.1429H21.4286V12.1429H26.7857V10.1429ZM22.4286 11.1429V5.78571H20.4286V11.1429H22.4286ZM26.7857 12.1429H32.1429V10.1429H26.7857V12.1429ZM31.1429 11.1429V16.5H33.1429V11.1429H31.1429ZM32.1429 15.5H26.7857V17.5H32.1429V15.5ZM27.7857 16.5V11.1429H25.7857V16.5H27.7857ZM32.1429 6.78571H37.5V4.78571H32.1429V6.78571ZM36.5 5.78571V11.1429H38.5V5.78571H36.5ZM37.5 10.1429H32.1429V12.1429H37.5V10.1429ZM33.1429 11.1429V5.78571H31.1429V11.1429H33.1429ZM32.1429 12.1429H37.5V10.1429H32.1429V12.1429ZM36.5 11.1429V16.5H38.5V11.1429H36.5ZM37.5 15.5H32.1429V17.5H37.5V15.5ZM33.1429 16.5V11.1429H31.1429V16.5H33.1429ZM32.1429 38.9286H37.5V36.9286H32.1429V38.9286ZM36.5 37.9286V43.2857H38.5V37.9286H36.5ZM37.5 42.2857H32.1429V44.2857H37.5V42.2857ZM33.1429 43.2857V37.9286H31.1429V43.2857H33.1429ZM32.1429 44.2857H37.5V42.2857H32.1429V44.2857ZM36.5 43.2857V48.6429H38.5V43.2857H36.5ZM37.5 47.6429H32.1429V49.6429H37.5V47.6429ZM33.1429 48.6429V43.2857H31.1429V48.6429H33.1429ZM26.7857 44.2857H32.1429V42.2857H26.7857V44.2857ZM31.1429 43.2857V48.6429H33.1429V43.2857H31.1429ZM32.1429 47.6429H26.7857V49.6429H32.1429V47.6429ZM27.7857 48.6429V43.2857H25.7857V48.6429H27.7857ZM26.7857 38.9286H32.1429V36.9286H26.7857V38.9286ZM31.1429 37.9286V43.2857H33.1429V37.9286H31.1429ZM32.1429 42.2857H26.7857V44.2857H32.1429V42.2857ZM27.7857 43.2857V37.9286H25.7857V43.2857H27.7857ZM21.4286 44.2857H26.7857V42.2857H21.4286V44.2857ZM25.7857 43.2857V48.6429H27.7857V43.2857H25.7857ZM26.7857 47.6429H21.4286V49.6429H26.7857V47.6429ZM22.4286 48.6429V43.2857H20.4286V48.6429H22.4286ZM26.7857 49.6429H32.1429V47.6429H26.7857V49.6429ZM31.1429 48.6429V54H33.1429V48.6429H31.1429ZM32.1429 53H26.7857V55H32.1429V53ZM27.7857 54V48.6429H25.7857V54H27.7857ZM21.4286 49.6429H26.7857V47.6429H21.4286V49.6429ZM25.7857 48.6429V54H27.7857V48.6429H25.7857ZM26.7857 53H21.4286V55H26.7857V53ZM22.4286 54V48.6429H20.4286V54H22.4286ZM16.0714 49.6429H21.4286V47.6429H16.0714V49.6429ZM20.4286 48.6429V54H22.4286V48.6429H20.4286ZM21.4286 53H16.0714V55H21.4286V53ZM17.0714 54V48.6429H15.0714V54H17.0714ZM16.0714 44.2857H21.4286V42.2857H16.0714V44.2857ZM20.4286 43.2857V48.6429H22.4286V43.2857H20.4286ZM21.4286 47.6429H16.0714V49.6429H21.4286V47.6429ZM17.0714 48.6429V43.2857H15.0714V48.6429H17.0714ZM10.7143 49.6429H16.0714V47.6429H10.7143V49.6429ZM15.0714 48.6429V54H17.0714V48.6429H15.0714ZM16.0714 53H10.7143V55H16.0714V53ZM11.7143 54V48.6429H9.71429V54H11.7143ZM5.35714 49.6429H10.7143V47.6429H5.35714V49.6429ZM9.71429 48.6429V54H11.7143V48.6429H9.71429ZM10.7143 53H5.35714V55H10.7143V53ZM6.35714 54V48.6429H4.35714V54H6.35714ZM5.35714 44.2857H10.7143V42.2857H5.35714V44.2857ZM9.71429 43.2857V48.6429H11.7143V43.2857H9.71429ZM10.7143 47.6429H5.35714V49.6429H10.7143V47.6429ZM6.35714 48.6429V43.2857H4.35714V48.6429H6.35714ZM10.7143 44.2857H16.0714V42.2857H10.7143V44.2857ZM15.0714 43.2857V48.6429H17.0714V43.2857H15.0714ZM16.0714 47.6429H10.7143V49.6429H16.0714V47.6429ZM11.7143 48.6429V43.2857H9.71429V48.6429H11.7143ZM10.7143 38.9286H16.0714V36.9286H10.7143V38.9286ZM15.0714 37.9286V43.2857H17.0714V37.9286H15.0714ZM16.0714 42.2857H10.7143V44.2857H16.0714V42.2857ZM11.7143 43.2857V37.9286H9.71429V43.2857H11.7143ZM5.35714 38.9286H10.7143V36.9286H5.35714V38.9286ZM9.71429 37.9286V43.2857H11.7143V37.9286H9.71429ZM10.7143 42.2857H5.35714V44.2857H10.7143V42.2857ZM6.35714 43.2857V37.9286H4.35714V43.2857H6.35714ZM0 44.2857H5.35714V42.2857H0V44.2857ZM4.35714 43.2857V48.6429H6.35714V43.2857H4.35714ZM5.35714 47.6429H0V49.6429H5.35714V47.6429ZM1 48.6429V43.2857H-1V48.6429H1ZM0 38.9286H5.35714V36.9286H0V38.9286ZM4.35714 37.9286V43.2857H6.35714V37.9286H4.35714ZM5.35714 42.2857H0V44.2857H5.35714V42.2857ZM1 43.2857V37.9286H-1V43.2857H1ZM0 33.5714H5.35714V31.5714H0V33.5714ZM4.35714 32.5714V37.9286H6.35714V32.5714H4.35714ZM5.35714 36.9286H0V38.9286H5.35714V36.9286ZM1 37.9286V32.5714H-1V37.9286H1ZM0 28.2143H5.35714V26.2143H0V28.2143ZM4.35714 27.2143V32.5714H6.35714V27.2143H4.35714ZM5.35714 31.5714H0V33.5714H5.35714V31.5714ZM1 32.5714V27.2143H-1V32.5714H1ZM0 22.8571H5.35714V20.8571H0V22.8571ZM4.35714 21.8571V27.2143H6.35714V21.8571H4.35714ZM5.35714 26.2143H0V28.2143H5.35714V26.2143ZM1 27.2143V21.8571H-1V27.2143H1ZM0 17.5H5.35714V15.5H0V17.5ZM4.35714 16.5V21.8571H6.35714V16.5H4.35714ZM5.35714 20.8571H0V22.8571H5.35714V20.8571ZM1 21.8571V16.5H-1V21.8571H1ZM0 12.1429H5.35714V10.1429H0V12.1429ZM4.35714 11.1429V16.5H6.35714V11.1429H4.35714ZM5.35714 15.5H0V17.5H5.35714V15.5ZM1 16.5V11.1429H-1V16.5H1ZM5.35714 12.1429H10.7143V10.1429H5.35714V12.1429ZM9.71429 11.1429V16.5H11.7143V11.1429H9.71429ZM10.7143 15.5H5.35714V17.5H10.7143V15.5ZM6.35714 16.5V11.1429H4.35714V16.5H6.35714ZM0 6.78571H5.35714V4.78571H0V6.78571ZM4.35714 5.78571V11.1429H6.35714V5.78571H4.35714ZM5.35714 10.1429H0V12.1429H5.35714V10.1429ZM1 11.1429V5.78571H-1V11.1429H1ZM10.7143 12.1429H16.0714V10.1429H10.7143V12.1429ZM15.0714 11.1429V16.5H17.0714V11.1429H15.0714ZM16.0714 15.5H10.7143V17.5H16.0714V15.5ZM11.7143 16.5V11.1429H9.71429V16.5H11.7143ZM5.35714 17.5H10.7143V15.5H5.35714V17.5ZM9.71429 16.5V21.8571H11.7143V16.5H9.71429ZM10.7143 20.8571H5.35714V22.8571H10.7143V20.8571ZM6.35714 21.8571V16.5H4.35714V21.8571H6.35714ZM5.35714 22.8571H10.7143V20.8571H5.35714V22.8571ZM9.71429 21.8571V27.2143H11.7143V21.8571H9.71429ZM10.7143 26.2143H5.35714V28.2143H10.7143V26.2143ZM6.35714 27.2143V21.8571H4.35714V27.2143H6.35714ZM5.35714 28.2143H10.7143V26.2143H5.35714V28.2143ZM9.71429 27.2143V32.5714H11.7143V27.2143H9.71429ZM10.7143 31.5714H5.35714V33.5714H10.7143V31.5714ZM6.35714 32.5714V27.2143H4.35714V32.5714H6.35714ZM5.35714 33.5714H10.7143V31.5714H5.35714V33.5714ZM9.71429 32.5714V37.9286H11.7143V32.5714H9.71429ZM10.7143 36.9286H5.35714V38.9286H10.7143V36.9286ZM6.35714 37.9286V32.5714H4.35714V37.9286H6.35714ZM32.1429 33.5714H37.5V31.5714H32.1429V33.5714ZM36.5 32.5714V37.9286H38.5V32.5714H36.5ZM37.5 36.9286H32.1429V38.9286H37.5V36.9286ZM33.1429 37.9286V32.5714H31.1429V37.9286H33.1429ZM26.7857 33.5714H32.1429V31.5714H26.7857V33.5714ZM31.1429 32.5714V37.9286H33.1429V32.5714H31.1429ZM32.1429 36.9286H26.7857V38.9286H32.1429V36.9286ZM27.7857 37.9286V32.5714H25.7857V37.9286H27.7857ZM26.7857 28.2143H32.1429V26.2143H26.7857V28.2143ZM31.1429 27.2143V32.5714H33.1429V27.2143H31.1429ZM32.1429 31.5714H26.7857V33.5714H32.1429V31.5714ZM27.7857 32.5714V27.2143H25.7857V32.5714H27.7857ZM32.1429 28.2143H37.5V26.2143H32.1429V28.2143ZM36.5 27.2143V32.5714H38.5V27.2143H36.5ZM37.5 31.5714H32.1429V33.5714H37.5V31.5714ZM33.1429 32.5714V27.2143H31.1429V32.5714H33.1429ZM32.1429 22.8571H37.5V20.8571H32.1429V22.8571ZM36.5 21.8571V27.2143H38.5V21.8571H36.5ZM37.5 26.2143H32.1429V28.2143H37.5V26.2143ZM33.1429 27.2143V21.8571H31.1429V27.2143H33.1429ZM26.7857 22.8571H32.1429V20.8571H26.7857V22.8571ZM31.1429 21.8571V27.2143H33.1429V21.8571H31.1429ZM32.1429 26.2143H26.7857V28.2143H32.1429V26.2143ZM27.7857 27.2143V21.8571H25.7857V27.2143H27.7857ZM21.4286 22.8571H26.7857V20.8571H21.4286V22.8571ZM25.7857 21.8571V27.2143H27.7857V21.8571H25.7857ZM26.7857 26.2143H21.4286V28.2143H26.7857V26.2143ZM22.4286 27.2143V21.8571H20.4286V27.2143H22.4286ZM16.0714 22.8571H21.4286V20.8571H16.0714V22.8571ZM20.4286 21.8571V27.2143H22.4286V21.8571H20.4286ZM21.4286 26.2143H16.0714V28.2143H21.4286V26.2143ZM17.0714 27.2143V21.8571H15.0714V27.2143H17.0714ZM16.0714 28.2143H21.4286V26.2143H16.0714V28.2143ZM20.4286 27.2143V32.5714H22.4286V27.2143H20.4286ZM21.4286 31.5714H16.0714V33.5714H21.4286V31.5714ZM17.0714 32.5714V27.2143H15.0714V32.5714H17.0714ZM21.4286 28.2143H26.7857V26.2143H21.4286V28.2143ZM25.7857 27.2143V32.5714H27.7857V27.2143H25.7857ZM26.7857 31.5714H21.4286V33.5714H26.7857V31.5714ZM22.4286 32.5714V27.2143H20.4286V32.5714H22.4286ZM42.8711 0.428573V-0.571427H41.8711V0.428573H42.8711ZM48.2282 0.428573H49.2282V-0.571427H48.2282V0.428573ZM48.2282 5.78571V6.78571H49.2282V5.78571H48.2282ZM42.8711 5.78571H41.8711V6.78571H42.8711V5.78571ZM48.2282 0.428573V-0.571427H47.2282V0.428573H48.2282ZM53.5854 0.428573H54.5854V-0.571427H53.5854V0.428573ZM53.5854 5.78571V6.78571H54.5854V5.78571H53.5854ZM48.2282 5.78571H47.2282V6.78571H48.2282V5.78571ZM48.2282 5.78571V4.78571H47.2282V5.78571H48.2282ZM53.5854 5.78571H54.5854V4.78571H53.5854V5.78571ZM53.5854 11.1429V12.1429H54.5854V11.1429H53.5854ZM48.2282 11.1429H47.2282V12.1429H48.2282V11.1429ZM48.2282 11.1429V10.1429H47.2282V11.1429H48.2282ZM53.5854 11.1429H54.5854V10.1429H53.5854V11.1429ZM53.5854 16.5V17.5H54.5854V16.5H53.5854ZM48.2282 16.5H47.2282V17.5H48.2282V16.5ZM48.2282 16.5V15.5H47.2282V16.5H48.2282ZM53.5854 16.5H54.5854V15.5H53.5854V16.5ZM53.5854 21.8571V22.8571H54.5854V21.8571H53.5854ZM48.2282 21.8571H47.2282V22.8571H48.2282V21.8571ZM42.8711 16.5V15.5H41.8711V16.5H42.8711ZM48.2282 16.5H49.2282V15.5H48.2282V16.5ZM48.2282 21.8571V22.8571H49.2282V21.8571H48.2282ZM42.8711 21.8571H41.8711V22.8571H42.8711V21.8571ZM42.8711 11.1429V10.1429H41.8711V11.1429H42.8711ZM48.2282 11.1429H49.2282V10.1429H48.2282V11.1429ZM48.2282 16.5V17.5H49.2282V16.5H48.2282ZM42.8711 16.5H41.8711V17.5H42.8711V16.5ZM42.8711 5.78571V4.78571H41.8711V5.78571H42.8711ZM48.2282 5.78571H49.2282V4.78571H48.2282V5.78571ZM48.2282 11.1429V12.1429H49.2282V11.1429H48.2282ZM42.8711 11.1429H41.8711V12.1429H42.8711V11.1429ZM42.8711 21.8571V20.8571H41.8711V21.8571H42.8711ZM48.2282 21.8571H49.2282V20.8571H48.2282V21.8571ZM48.2282 27.2143V28.2143H49.2282V27.2143H48.2282ZM42.8711 27.2143H41.8711V28.2143H42.8711V27.2143ZM42.8711 27.2143V26.2143H41.8711V27.2143H42.8711ZM48.2282 27.2143H49.2282V26.2143H48.2282V27.2143ZM48.2282 32.5714V33.5714H49.2282V32.5714H48.2282ZM42.8711 32.5714H41.8711V33.5714H42.8711V32.5714ZM42.8711 32.5714V31.5714H41.8711V32.5714H42.8711ZM48.2282 32.5714H49.2282V31.5714H48.2282V32.5714ZM48.2282 37.9286V38.9286H49.2282V37.9286H48.2282ZM42.8711 37.9286H41.8711V38.9286H42.8711V37.9286ZM48.2282 27.2143V26.2143H47.2282V27.2143H48.2282ZM53.5854 27.2143H54.5854V26.2143H53.5854V27.2143ZM53.5854 32.5714V33.5714H54.5854V32.5714H53.5854ZM48.2282 32.5714H47.2282V33.5714H48.2282V32.5714ZM48.2282 21.8571V20.8571H47.2282V21.8571H48.2282ZM53.5854 21.8571H54.5854V20.8571H53.5854V21.8571ZM53.5854 27.2143V28.2143H54.5854V27.2143H53.5854ZM48.2282 27.2143H47.2282V28.2143H48.2282V27.2143ZM48.2282 32.5714V31.5714H47.2282V32.5714H48.2282ZM53.5854 32.5714H54.5854V31.5714H53.5854V32.5714ZM53.5854 37.9286V38.9286H54.5854V37.9286H53.5854ZM48.2282 37.9286H47.2282V38.9286H48.2282V37.9286ZM48.2282 37.9286V36.9286H47.2282V37.9286H48.2282ZM53.5854 37.9286H54.5854V36.9286H53.5854V37.9286ZM53.5854 43.2857V44.2857H54.5854V43.2857H53.5854ZM48.2282 43.2857H47.2282V44.2857H48.2282V43.2857ZM42.8711 43.2857V42.2857H41.8711V43.2857H42.8711ZM48.2282 43.2857H49.2282V42.2857H48.2282V43.2857ZM48.2282 48.6429V49.6429H49.2282V48.6429H48.2282ZM42.8711 48.6429H41.8711V49.6429H42.8711V48.6429ZM42.8711 37.9286V36.9286H41.8711V37.9286H42.8711ZM48.2282 37.9286H49.2282V36.9286H48.2282V37.9286ZM48.2282 43.2857V44.2857H49.2282V43.2857H48.2282ZM42.8711 43.2857H41.8711V44.2857H42.8711V43.2857ZM42.8711 48.6429V47.6429H41.8711V48.6429H42.8711ZM48.2282 48.6429H49.2282V47.6429H48.2282V48.6429ZM48.2282 54V55H49.2282V54H48.2282ZM42.8711 54H41.8711V55H42.8711V54ZM48.2282 48.6429V47.6429H47.2282V48.6429H48.2282ZM53.5854 48.6429H54.5854V47.6429H53.5854V48.6429ZM53.5854 54V55H54.5854V54H53.5854ZM48.2282 54H47.2282V55H48.2282V54ZM48.2282 43.2857V42.2857H47.2282V43.2857H48.2282ZM53.5854 43.2857H54.5854V42.2857H53.5854V43.2857ZM53.5854 48.6429V49.6429H54.5854V48.6429H53.5854ZM48.2282 48.6429H47.2282V49.6429H48.2282V48.6429ZM53.5854 0.428573V-0.571427H52.5854V0.428573H53.5854ZM58.9425 0.428573H59.9425V-0.571427H58.9425V0.428573ZM58.9425 5.78571V6.78571H59.9425V5.78571H58.9425ZM53.5854 5.78571H52.5854V6.78571H53.5854V5.78571ZM58.9425 0.428573V-0.571427H57.9425V0.428573H58.9425ZM64.2997 0.428573H65.2997V-0.571427H64.2997V0.428573ZM64.2997 5.78571V6.78571H65.2997V5.78571H64.2997ZM58.9425 5.78571H57.9425V6.78571H58.9425V5.78571ZM64.2997 0.428573V-0.571427H63.2997V0.428573H64.2997ZM69.6568 0.428573H70.6568V-0.571427H69.6568V0.428573ZM69.6568 5.78571V6.78571H70.6568V5.78571H69.6568ZM64.2997 5.78571H63.2997V6.78571H64.2997V5.78571ZM69.6568 0.428573V-0.571427H68.6568V0.428573H69.6568ZM75.014 0.428573H76.014V-0.571427H75.014V0.428573ZM75.014 5.78571V6.78571H76.014V5.78571H75.014ZM69.6568 5.78571H68.6568V6.78571H69.6568V5.78571ZM64.2997 5.78571V4.78571H63.2997V5.78571H64.2997ZM69.6568 5.78571H70.6568V4.78571H69.6568V5.78571ZM69.6568 11.1429V12.1429H70.6568V11.1429H69.6568ZM64.2997 11.1429H63.2997V12.1429H64.2997V11.1429ZM58.9425 5.78571V4.78571H57.9425V5.78571H58.9425ZM64.2997 5.78571H65.2997V4.78571H64.2997V5.78571ZM64.2997 11.1429V12.1429H65.2997V11.1429H64.2997ZM58.9425 11.1429H57.9425V12.1429H58.9425V11.1429ZM53.5854 5.78571V4.78571H52.5854V5.78571H53.5854ZM58.9425 5.78571H59.9425V4.78571H58.9425V5.78571ZM58.9425 11.1429V12.1429H59.9425V11.1429H58.9425ZM53.5854 11.1429H52.5854V12.1429H53.5854V11.1429ZM53.5854 27.2143V26.2143H52.5854V27.2143H53.5854ZM58.9425 27.2143H59.9425V26.2143H58.9425V27.2143ZM58.9425 32.5714V33.5714H59.9425V32.5714H58.9425ZM53.5854 32.5714H52.5854V33.5714H53.5854V32.5714ZM58.9425 21.8571V20.8571H57.9425V21.8571H58.9425ZM64.2997 21.8571H65.2997V20.8571H64.2997V21.8571ZM64.2997 27.2143V28.2143H65.2997V27.2143H64.2997ZM58.9425 27.2143H57.9425V28.2143H58.9425V27.2143ZM53.5854 21.8571V20.8571H52.5854V21.8571H53.5854ZM58.9425 21.8571H59.9425V20.8571H58.9425V21.8571ZM58.9425 27.2143V28.2143H59.9425V27.2143H58.9425ZM53.5854 27.2143H52.5854V28.2143H53.5854V27.2143ZM58.9425 27.2143V26.2143H57.9425V27.2143H58.9425ZM64.2997 27.2143H65.2997V26.2143H64.2997V27.2143ZM64.2997 32.5714V33.5714H65.2997V32.5714H64.2997ZM58.9425 32.5714H57.9425V33.5714H58.9425V32.5714ZM69.6568 5.78571V4.78571H68.6568V5.78571H69.6568ZM75.014 5.78571H76.014V4.78571H75.014V5.78571ZM75.014 11.1429V12.1429H76.014V11.1429H75.014ZM69.6568 11.1429H68.6568V12.1429H69.6568V11.1429ZM64.2997 21.8571V20.8571H63.2997V21.8571H64.2997ZM69.6568 21.8571H70.6568V20.8571H69.6568V21.8571ZM69.6568 27.2143V28.2143H70.6568V27.2143H69.6568ZM64.2997 27.2143H63.2997V28.2143H64.2997V27.2143ZM64.2997 27.2143V26.2143H63.2997V27.2143H64.2997ZM69.6568 27.2143H70.6568V26.2143H69.6568V27.2143ZM69.6568 32.5714V33.5714H70.6568V32.5714H69.6568ZM64.2997 32.5714H63.2997V33.5714H64.2997V32.5714ZM42.8711 1.42857H48.2282V-0.571427H42.8711V1.42857ZM47.2282 0.428573V5.78571H49.2282V0.428573H47.2282ZM48.2282 4.78571H42.8711V6.78571H48.2282V4.78571ZM43.8711 5.78571V0.428573H41.8711V5.78571H43.8711ZM48.2282 1.42857H53.5854V-0.571427H48.2282V1.42857ZM52.5854 0.428573V5.78571H54.5854V0.428573H52.5854ZM53.5854 4.78571H48.2282V6.78571H53.5854V4.78571ZM49.2282 5.78571V0.428573H47.2282V5.78571H49.2282ZM48.2282 6.78571H53.5854V4.78571H48.2282V6.78571ZM52.5854 5.78571V11.1429H54.5854V5.78571H52.5854ZM53.5854 10.1429H48.2282V12.1429H53.5854V10.1429ZM49.2282 11.1429V5.78571H47.2282V11.1429H49.2282ZM48.2282 12.1429H53.5854V10.1429H48.2282V12.1429ZM52.5854 11.1429V16.5H54.5854V11.1429H52.5854ZM53.5854 15.5H48.2282V17.5H53.5854V15.5ZM49.2282 16.5V11.1429H47.2282V16.5H49.2282ZM48.2282 17.5H53.5854V15.5H48.2282V17.5ZM52.5854 16.5V21.8571H54.5854V16.5H52.5854ZM53.5854 20.8571H48.2282V22.8571H53.5854V20.8571ZM49.2282 21.8571V16.5H47.2282V21.8571H49.2282ZM42.8711 17.5H48.2282V15.5H42.8711V17.5ZM47.2282 16.5V21.8571H49.2282V16.5H47.2282ZM48.2282 20.8571H42.8711V22.8571H48.2282V20.8571ZM43.8711 21.8571V16.5H41.8711V21.8571H43.8711ZM42.8711 12.1429H48.2282V10.1429H42.8711V12.1429ZM47.2282 11.1429V16.5H49.2282V11.1429H47.2282ZM48.2282 15.5H42.8711V17.5H48.2282V15.5ZM43.8711 16.5V11.1429H41.8711V16.5H43.8711ZM42.8711 6.78571H48.2282V4.78571H42.8711V6.78571ZM47.2282 5.78571V11.1429H49.2282V5.78571H47.2282ZM48.2282 10.1429H42.8711V12.1429H48.2282V10.1429ZM43.8711 11.1429V5.78571H41.8711V11.1429H43.8711ZM42.8711 22.8571H48.2282V20.8571H42.8711V22.8571ZM47.2282 21.8571V27.2143H49.2282V21.8571H47.2282ZM48.2282 26.2143H42.8711V28.2143H48.2282V26.2143ZM43.8711 27.2143V21.8571H41.8711V27.2143H43.8711ZM42.8711 28.2143H48.2282V26.2143H42.8711V28.2143ZM47.2282 27.2143V32.5714H49.2282V27.2143H47.2282ZM48.2282 31.5714H42.8711V33.5714H48.2282V31.5714ZM43.8711 32.5714V27.2143H41.8711V32.5714H43.8711ZM42.8711 33.5714H48.2282V31.5714H42.8711V33.5714ZM47.2282 32.5714V37.9286H49.2282V32.5714H47.2282ZM48.2282 36.9286H42.8711V38.9286H48.2282V36.9286ZM43.8711 37.9286V32.5714H41.8711V37.9286H43.8711ZM48.2282 28.2143H53.5854V26.2143H48.2282V28.2143ZM52.5854 27.2143V32.5714H54.5854V27.2143H52.5854ZM53.5854 31.5714H48.2282V33.5714H53.5854V31.5714ZM49.2282 32.5714V27.2143H47.2282V32.5714H49.2282ZM48.2282 22.8571H53.5854V20.8571H48.2282V22.8571ZM52.5854 21.8571V27.2143H54.5854V21.8571H52.5854ZM53.5854 26.2143H48.2282V28.2143H53.5854V26.2143ZM49.2282 27.2143V21.8571H47.2282V27.2143H49.2282ZM48.2282 33.5714H53.5854V31.5714H48.2282V33.5714ZM52.5854 32.5714V37.9286H54.5854V32.5714H52.5854ZM53.5854 36.9286H48.2282V38.9286H53.5854V36.9286ZM49.2282 37.9286V32.5714H47.2282V37.9286H49.2282ZM48.2282 38.9286H53.5854V36.9286H48.2282V38.9286ZM52.5854 37.9286V43.2857H54.5854V37.9286H52.5854ZM53.5854 42.2857H48.2282V44.2857H53.5854V42.2857ZM49.2282 43.2857V37.9286H47.2282V43.2857H49.2282ZM42.8711 44.2857H48.2282V42.2857H42.8711V44.2857ZM47.2282 43.2857V48.6429H49.2282V43.2857H47.2282ZM48.2282 47.6429H42.8711V49.6429H48.2282V47.6429ZM43.8711 48.6429V43.2857H41.8711V48.6429H43.8711ZM42.8711 38.9286H48.2282V36.9286H42.8711V38.9286ZM47.2282 37.9286V43.2857H49.2282V37.9286H47.2282ZM48.2282 42.2857H42.8711V44.2857H48.2282V42.2857ZM43.8711 43.2857V37.9286H41.8711V43.2857H43.8711ZM42.8711 49.6429H48.2282V47.6429H42.8711V49.6429ZM47.2282 48.6429V54H49.2282V48.6429H47.2282ZM48.2282 53H42.8711V55H48.2282V53ZM43.8711 54V48.6429H41.8711V54H43.8711ZM48.2282 49.6429H53.5854V47.6429H48.2282V49.6429ZM52.5854 48.6429V54H54.5854V48.6429H52.5854ZM53.5854 53H48.2282V55H53.5854V53ZM49.2282 54V48.6429H47.2282V54H49.2282ZM48.2282 44.2857H53.5854V42.2857H48.2282V44.2857ZM52.5854 43.2857V48.6429H54.5854V43.2857H52.5854ZM53.5854 47.6429H48.2282V49.6429H53.5854V47.6429ZM49.2282 48.6429V43.2857H47.2282V48.6429H49.2282ZM53.5854 1.42857H58.9425V-0.571427H53.5854V1.42857ZM57.9425 0.428573V5.78571H59.9425V0.428573H57.9425ZM58.9425 4.78571H53.5854V6.78571H58.9425V4.78571ZM54.5854 5.78571V0.428573H52.5854V5.78571H54.5854ZM58.9425 1.42857H64.2997V-0.571427H58.9425V1.42857ZM63.2997 0.428573V5.78571H65.2997V0.428573H63.2997ZM64.2997 4.78571H58.9425V6.78571H64.2997V4.78571ZM59.9425 5.78571V0.428573H57.9425V5.78571H59.9425ZM64.2997 1.42857H69.6568V-0.571427H64.2997V1.42857ZM68.6568 0.428573V5.78571H70.6568V0.428573H68.6568ZM69.6568 4.78571H64.2997V6.78571H69.6568V4.78571ZM65.2997 5.78571V0.428573H63.2997V5.78571H65.2997ZM69.6568 1.42857H75.014V-0.571427H69.6568V1.42857ZM74.014 0.428573V5.78571H76.014V0.428573H74.014ZM75.014 4.78571H69.6568V6.78571H75.014V4.78571ZM70.6568 5.78571V0.428573H68.6568V5.78571H70.6568ZM64.2997 6.78571H69.6568V4.78571H64.2997V6.78571ZM68.6568 5.78571V11.1429H70.6568V5.78571H68.6568ZM69.6568 10.1429H64.2997V12.1429H69.6568V10.1429ZM65.2997 11.1429V5.78571H63.2997V11.1429H65.2997ZM58.9425 6.78571H64.2997V4.78571H58.9425V6.78571ZM63.2997 5.78571V11.1429H65.2997V5.78571H63.2997ZM64.2997 10.1429H58.9425V12.1429H64.2997V10.1429ZM59.9425 11.1429V5.78571H57.9425V11.1429H59.9425ZM53.5854 6.78571H58.9425V4.78571H53.5854V6.78571ZM57.9425 5.78571V11.1429H59.9425V5.78571H57.9425ZM58.9425 10.1429H53.5854V12.1429H58.9425V10.1429ZM54.5854 11.1429V5.78571H52.5854V11.1429H54.5854ZM53.5854 28.2143H58.9425V26.2143H53.5854V28.2143ZM57.9425 27.2143V32.5714H59.9425V27.2143H57.9425ZM58.9425 31.5714H53.5854V33.5714H58.9425V31.5714ZM54.5854 32.5714V27.2143H52.5854V32.5714H54.5854ZM58.9425 22.8571H64.2997V20.8571H58.9425V22.8571ZM63.2997 21.8571V27.2143H65.2997V21.8571H63.2997ZM64.2997 26.2143H58.9425V28.2143H64.2997V26.2143ZM59.9425 27.2143V21.8571H57.9425V27.2143H59.9425ZM53.5854 22.8571H58.9425V20.8571H53.5854V22.8571ZM57.9425 21.8571V27.2143H59.9425V21.8571H57.9425ZM58.9425 26.2143H53.5854V28.2143H58.9425V26.2143ZM54.5854 27.2143V21.8571H52.5854V27.2143H54.5854ZM58.9425 28.2143H64.2997V26.2143H58.9425V28.2143ZM63.2997 27.2143V32.5714H65.2997V27.2143H63.2997ZM64.2997 31.5714H58.9425V33.5714H64.2997V31.5714ZM59.9425 32.5714V27.2143H57.9425V32.5714H59.9425ZM69.6568 6.78571H75.014V4.78571H69.6568V6.78571ZM74.014 5.78571V11.1429H76.014V5.78571H74.014ZM75.014 10.1429H69.6568V12.1429H75.014V10.1429ZM70.6568 11.1429V5.78571H68.6568V11.1429H70.6568ZM64.2997 22.8571H69.6568V20.8571H64.2997V22.8571ZM68.6568 21.8571V27.2143H70.6568V21.8571H68.6568ZM69.6568 26.2143H64.2997V28.2143H69.6568V26.2143ZM65.2997 27.2143V21.8571H63.2997V27.2143H65.2997ZM64.2997 28.2143H69.6568V26.2143H64.2997V28.2143ZM68.6568 27.2143V32.5714H70.6568V27.2143H68.6568ZM69.6568 31.5714H64.2997V33.5714H69.6568V31.5714ZM65.2997 32.5714V27.2143H63.2997V32.5714H65.2997Z" fill="white" mask="url(#path-1-outside-1_14_2)"/>
</svg>
